<svg xmlns="http://www.w3.org/2000/svg" viewBox="0 0 60 60" width="60" height="60">
  <circle cx="30" cy="30" r="8" fill="#FFD700"/>
  <circle cx="30" cy="30" r="6" fill="#FFC107" opacity="0.8"/>
  <circle cx="28" cy="28" r="2" fill="#FFF8E1" opacity="0.6"/>
  <path d="M22,28 Q14,18 6,14 Q10,20 8,26 Q14,22 22,28Z" fill="#E0E0E0" opacity="0.85"/>
  <path d="M22,32 Q14,38 6,44 Q10,38 8,32 Q14,36 22,32Z" fill="#E0E0E0" opacity="0.85"/>
  <path d="M38,28 Q46,18 54,14 Q50,20 52,26 Q46,22 38,28Z" fill="#E0E0E0" opacity="0.85"/>
  <path d="M38,32 Q46,38 54,44 Q50,38 52,32 Q46,36 38,32Z" fill="#E0E0E0" opacity="0.85"/>
</svg>