<svg xmlns="http://www.w3.org/2000/svg" viewBox="0 0 60 60" width="60" height="60">
  <defs>
    <linearGradient id="dg" x1="0%" y1="0%" x2="100%" y2="100%">
      <stop offset="0%" style="stop-color:#8B0000"/>
      <stop offset="50%" style="stop-color:#B22222"/>
      <stop offset="100%" style="stop-color:#DC143C"/>
    </linearGradient>
  </defs>
  <!-- Wing back -->
  <path d="M28,22 L8,8 L14,22 L6,14 L16,26" fill="#8B0000" stroke="#600000" stroke-width="1"/>
  <!-- Body -->
  <path d="M18,28 C16,24 20,18 26,18 C30,18 34,20 36,24 C38,28 40,34 38,40 C36,46 30,50 24,48 C18,46 16,40 18,34 Z" fill="url(#dg)" stroke="#600000" stroke-width="1.5"/>
  <!-- Wing front -->
  <path d="M34,22 L52,6 L46,20 L54,12 L44,26" fill="#B22222" stroke="#600000" stroke-width="1"/>
  <!-- Head -->
  <ellipse cx="28" cy="20" rx="6" ry="5" fill="#DC143C" stroke="#600000" stroke-width="1"/>
  <!-- Snout -->
  <ellipse cx="24" cy="21" rx="3" ry="2.5" fill="#B22222" stroke="#600000" stroke-width="1"/>
  <!-- Eye -->
  <circle cx="29" cy="18" r="1.5" fill="#FFD700"/>
  <circle cx="29" cy="18" r="0.7" fill="#000"/>
  <!-- Horn -->
  <polygon points="30,15 32,8 28,14" fill="#8B6914"/>
  <!-- Tail -->
  <path d="M32,44 C36,48 42,50 48,48 C50,47 52,44 54,46" fill="none" stroke="#8B0000" stroke-width="3" stroke-linecap="round"/>
  <!-- Tail tip -->
  <polygon points="52,44 58,42 54,48" fill="#DC143C"/>
  <!-- Belly -->
  <path d="M22,30 C22,34 24,40 28,42 C24,40 22,36 22,30Z" fill="#FF6347" opacity="0.4"/>
</svg>
