<svg xmlns="http://www.w3.org/2000/svg" viewBox="0 0 60 60" width="60" height="60">
  <defs>
    <linearGradient id="fg" x1="50%" y1="100%" x2="50%" y2="0%">
      <stop offset="0%" style="stop-color:#FF4500"/>
      <stop offset="40%" style="stop-color:#FF6600"/>
      <stop offset="70%" style="stop-color:#FFA500"/>
      <stop offset="100%" style="stop-color:#FFD700"/>
    </linearGradient>
  </defs>
  <!-- Outer flame -->
  <path d="M30,4 C30,4 42,18 44,30 C46,38 44,46 38,52 C34,56 26,56 22,52 C16,46 14,38 16,30 C18,18 30,4 30,4Z" fill="url(#fg)"/>
  <!-- Mid flame -->
  <path d="M30,14 C30,14 38,24 39,32 C40,38 38,44 34,48 C32,50 28,50 26,48 C22,44 20,38 21,32 C22,24 30,14 30,14Z" fill="#FF8C00" opacity="0.8"/>
  <!-- Inner flame -->
  <path d="M30,24 C30,24 35,30 35,36 C35,40 33,44 30,46 C27,44 25,40 25,36 C25,30 30,24 30,24Z" fill="#FFD700" opacity="0.9"/>
  <!-- Core -->
  <ellipse cx="30" cy="40" rx="3" ry="5" fill="#FFFF80" opacity="0.7"/>
</svg>
